<svg width="130" height="130" viewBox="0 0 130 130" fill="none" xmlns="http://www.w3.org/2000/svg">
<g filter="url(#filter0_d_2030_409)">
<rect x="26" y="27" width="68" height="68" rx="34" fill="white" shape-rendering="crispEdges"/>
<path d="M76.3739 41H43.6261C41.6234 41 40 42.6234 40 44.6261V77.3739C40 79.3766 41.6234 81 43.6261 81H76.3739C78.3766 81 80 79.3766 80 77.3739V44.6261C80 42.6234 78.3766 41 76.3739 41Z" fill="#DC395F"/>
<path d="M53.368 53.5852C54.6977 53.5852 55.8116 52.543 55.8116 51.177C55.8116 49.812 54.6977 48.77 53.368 48.77C52.0383 48.77 50.9247 49.812 50.9247 51.177C50.9247 52.5428 52.0383 53.5852 53.368 53.5852Z" fill="white"/>
<path d="M48.3014 66.4788C48.1578 67.0897 48.0858 67.7494 48.0858 68.2876C48.0858 70.408 49.2356 71.8157 51.6792 71.8157C53.7058 71.8157 55.3487 70.6122 56.5317 68.669L55.8093 71.5679H59.8336L62.1336 62.343C62.7086 60.0074 63.8225 58.7951 65.5115 58.7951C66.8411 58.7951 67.6675 59.6219 67.6675 60.9869C67.6675 61.3824 67.6315 61.8132 67.4878 62.2805L66.3018 66.5207C66.1222 67.1316 66.0506 67.7429 66.0506 68.3174C66.0506 70.3304 67.2361 71.8027 69.7156 71.8027C71.8358 71.8027 73.5245 70.4379 74.4589 67.1677L72.8779 66.5574C72.0873 68.7482 71.4045 69.1443 70.8654 69.1443C70.3264 69.1443 70.0389 68.7852 70.0389 68.0669C70.0389 67.7435 70.1111 67.3846 70.2186 66.9524L71.3687 62.8215C71.6561 61.8515 71.764 60.9913 71.764 60.201C71.764 57.1107 69.8953 55.4979 67.6315 55.4979C65.5115 55.4979 63.3553 57.4102 62.2775 59.4229L63.0678 55.8104H56.9234L56.0609 58.9922H58.9358L57.1654 66.0797C55.7753 69.17 53.2217 69.2202 52.9012 69.1485C52.375 69.0297 52.0384 68.8299 52.0384 68.1461C52.0384 67.7516 52.1103 67.1849 52.29 66.5016L54.9853 55.8104H48.1578L47.2953 58.9922H50.1339L48.3015 66.4788" fill="white"/>
</g>
<defs>
<filter id="filter0_d_2030_409" x="0" y="0" width="130" height="130" filterUnits="userSpaceOnUse" color-interpolation-filters="sRGB">
<feFlood flood-opacity="0" result="BackgroundImageFix"/>
<feColorMatrix in="SourceAlpha" type="matrix" values="0 0 0 0 0 0 0 0 0 0 0 0 0 0 0 0 0 0 127 0" result="hardAlpha"/>
<feOffset dx="5" dy="4"/>
<feGaussianBlur stdDeviation="15.5"/>
<feComposite in2="hardAlpha" operator="out"/>
<feColorMatrix type="matrix" values="0 0 0 0 0 0 0 0 0 0 0 0 0 0 0 0 0 0 0.07 0"/>
<feBlend mode="normal" in2="BackgroundImageFix" result="effect1_dropShadow_2030_409"/>
<feBlend mode="normal" in="SourceGraphic" in2="effect1_dropShadow_2030_409" result="shape"/>
</filter>
</defs>
</svg>
