<svg width="136" height="136" viewBox="0 0 136 136" fill="none" xmlns="http://www.w3.org/2000/svg">
<g filter="url(#filter0_d_2030_421)">
<rect x="29" y="30" width="68" height="68" rx="34" fill="white" shape-rendering="crispEdges"/>
<rect x="27.5" y="28.5" width="71" height="71" rx="35.5" stroke="black" stroke-width="3" shape-rendering="crispEdges"/>
<path fill-rule="evenodd" clip-rule="evenodd" d="M62.7823 84L70.8037 59.3927H54.7615L62.7825 84H62.7823Z" fill="#E24329"/>
<path fill-rule="evenodd" clip-rule="evenodd" d="M62.7824 84L54.7611 59.3927H43.5191L62.7827 83.9997L62.7824 84Z" fill="#FC6D26"/>
<path fill-rule="evenodd" clip-rule="evenodd" d="M43.5191 59.3927L41.0813 66.8705C40.8591 67.5527 41.1026 68.3 41.6848 68.7213L62.7824 84L43.5191 59.3926V59.3927Z" fill="#FCA326"/>
<path fill-rule="evenodd" clip-rule="evenodd" d="M43.5192 59.3927H54.7612L49.9297 44.5719C49.6812 43.8094 48.5989 43.8094 48.3505 44.5719L43.5191 59.3927H43.5192Z" fill="#E24329"/>
<path fill-rule="evenodd" clip-rule="evenodd" d="M62.7824 84L70.8038 59.3927H82.0457L62.7826 83.9997L62.7824 84Z" fill="#FC6D26"/>
<path fill-rule="evenodd" clip-rule="evenodd" d="M82.0456 59.3927L84.4834 66.8705C84.7056 67.5527 84.4622 68.3 83.8799 68.7213L62.7824 84L82.0456 59.3926V59.3927Z" fill="#FCA326"/>
<path fill-rule="evenodd" clip-rule="evenodd" d="M82.0455 59.3927H70.8036L75.6351 44.5719C75.8837 43.8094 76.966 43.8094 77.2145 44.5719L82.0457 59.3927H82.0455Z" fill="#E24329"/>
</g>
<defs>
<filter id="filter0_d_2030_421" x="0" y="0" width="136" height="136" filterUnits="userSpaceOnUse" color-interpolation-filters="sRGB">
<feFlood flood-opacity="0" result="BackgroundImageFix"/>
<feColorMatrix in="SourceAlpha" type="matrix" values="0 0 0 0 0 0 0 0 0 0 0 0 0 0 0 0 0 0 127 0" result="hardAlpha"/>
<feOffset dx="5" dy="4"/>
<feGaussianBlur stdDeviation="15.5"/>
<feComposite in2="hardAlpha" operator="out"/>
<feColorMatrix type="matrix" values="0 0 0 0 0 0 0 0 0 0 0 0 0 0 0 0 0 0 0.07 0"/>
<feBlend mode="normal" in2="BackgroundImageFix" result="effect1_dropShadow_2030_421"/>
<feBlend mode="normal" in="SourceGraphic" in2="effect1_dropShadow_2030_421" result="shape"/>
</filter>
</defs>
</svg>
