<svg width="130" height="130" viewBox="0 0 130 130" fill="none" xmlns="http://www.w3.org/2000/svg">
<g filter="url(#filter0_d_2030_400)">
<rect x="26" y="27" width="68" height="68" rx="34" fill="white" shape-rendering="crispEdges"/>
<path d="M76.2625 47.2875L69.055 43.8175C68.648 43.6213 68.19 43.5565 67.7445 43.6322C67.299 43.7079 66.8881 43.9203 66.5688 44.24L42.975 65.75C42.6887 66.0098 42.5174 66.3726 42.4986 66.7587C42.4799 67.1448 42.6153 67.5225 42.875 67.8088C42.9063 67.8425 42.9375 67.875 42.9713 67.905L44.8975 69.655C45.1492 69.8841 45.4732 70.0178 45.8132 70.0329C46.1532 70.0479 46.4878 69.9434 46.7588 69.7375L75.1775 48.1875C75.3922 48.0246 75.648 47.9249 75.9163 47.8996C76.1845 47.8742 76.4546 47.9242 76.6959 48.044C76.9373 48.1638 77.1405 48.3485 77.2825 48.5775C77.4246 48.8065 77.4999 49.0706 77.5 49.34V49.2563C77.5 48.8449 77.3838 48.4419 77.1649 48.0936C76.946 47.7453 76.6332 47.4659 76.2625 47.2875Z" fill="#0065A9"/>
<path d="M76.2625 74.7126L69.055 78.1838C68.6479 78.3795 68.19 78.444 67.7446 78.3683C67.2993 78.2926 66.8884 78.0805 66.5688 77.7613L42.975 56.2501C42.6887 55.9903 42.5174 55.6275 42.4986 55.2414C42.4799 54.8553 42.6153 54.4776 42.875 54.1913C42.9063 54.1576 42.9375 54.1251 42.9713 54.0951L44.8975 52.3451C45.1495 52.115 45.4742 51.9807 45.815 51.9657C46.1559 51.9506 46.4912 52.0557 46.7625 52.2626L75.1775 73.8126C75.3922 73.9754 75.648 74.0752 75.9163 74.1005C76.1845 74.1259 76.4546 74.0759 76.6959 73.9561C76.9373 73.8363 77.1405 73.6515 77.2825 73.4226C77.4246 73.1936 77.4999 72.9295 77.5 72.6601V72.7501C77.4987 73.1603 77.3819 73.562 77.1631 73.909C76.9442 74.2561 76.6321 74.5345 76.2625 74.7126Z" fill="#007ACC"/>
<path d="M69.055 78.1837C68.6478 78.3794 68.19 78.4439 67.7446 78.3682C67.2992 78.2925 66.8884 78.0804 66.5687 77.7612C66.7482 77.9384 66.976 78.0586 67.2236 78.1069C67.4711 78.1552 67.7274 78.1293 67.9603 78.0325C68.1932 77.9358 68.3924 77.7724 68.5329 77.5629C68.6733 77.3535 68.7489 77.1072 68.75 76.855V45.145C68.7502 44.8916 68.6752 44.6438 68.5345 44.4331C68.3938 44.2224 68.1937 44.0582 67.9595 43.9613C67.7254 43.8643 67.4678 43.8391 67.2193 43.8887C66.9708 43.9383 66.7427 44.0606 66.5637 44.24C66.8831 43.9204 67.2939 43.708 67.7393 43.6321C68.1848 43.5562 68.6427 43.6205 69.05 43.8162L76.2562 47.2812C76.6281 47.4587 76.9422 47.7378 77.1622 48.0861C77.3823 48.4345 77.4994 48.8379 77.5 49.25V72.75C77.5001 73.1617 77.3838 73.5651 77.1647 73.9136C76.9455 74.2622 76.6323 74.5417 76.2612 74.72L69.055 78.1837Z" fill="#1F9CF0"/>
</g>
<defs>
<filter id="filter0_d_2030_400" x="0" y="0" width="130" height="130" filterUnits="userSpaceOnUse" color-interpolation-filters="sRGB">
<feFlood flood-opacity="0" result="BackgroundImageFix"/>
<feColorMatrix in="SourceAlpha" type="matrix" values="0 0 0 0 0 0 0 0 0 0 0 0 0 0 0 0 0 0 127 0" result="hardAlpha"/>
<feOffset dx="5" dy="4"/>
<feGaussianBlur stdDeviation="15.5"/>
<feComposite in2="hardAlpha" operator="out"/>
<feColorMatrix type="matrix" values="0 0 0 0 0 0 0 0 0 0 0 0 0 0 0 0 0 0 0.07 0"/>
<feBlend mode="normal" in2="BackgroundImageFix" result="effect1_dropShadow_2030_400"/>
<feBlend mode="normal" in="SourceGraphic" in2="effect1_dropShadow_2030_400" result="shape"/>
</filter>
</defs>
</svg>
