<svg width="130" height="130" viewBox="0 0 130 130" fill="none" xmlns="http://www.w3.org/2000/svg">
<g filter="url(#filter0_d_2030_372)">
<rect x="26" y="27" width="68" height="68" rx="34" fill="white" shape-rendering="crispEdges"/>
<g clip-path="url(#clip0_2030_372)">
<path d="M53.1163 81.3256C57.0444 81.3256 60.2325 78.3146 60.2325 74.6047V67.8837H53.1163C49.1881 67.8837 46 70.8947 46 74.6047C46 78.3146 49.1881 81.3256 53.1163 81.3256Z" fill="#0ACF83"/>
<path d="M46 61.1628C46 57.4529 49.1881 54.4419 53.1163 54.4419H60.2325V67.8838H53.1163C49.1881 67.8838 46 64.8728 46 61.1628Z" fill="#A259FF"/>
<path d="M46 47.7209C46 44.011 49.1881 41 53.1163 41H60.2325V54.4419H53.1163C49.1881 54.4419 46 51.4309 46 47.7209Z" fill="#F24E1E"/>
<path d="M60.2325 41H67.3488C71.277 41 74.4651 44.011 74.4651 47.7209C74.4651 51.4309 71.277 54.4419 67.3488 54.4419H60.2325V41Z" fill="#FF7262"/>
<path d="M74.4651 61.1628C74.4651 64.8728 71.277 67.8838 67.3488 67.8838C63.4206 67.8838 60.2325 64.8728 60.2325 61.1628C60.2325 57.4529 63.4206 54.4419 67.3488 54.4419C71.277 54.4419 74.4651 57.4529 74.4651 61.1628Z" fill="#1ABCFE"/>
</g>
</g>
<defs>
<filter id="filter0_d_2030_372" x="0" y="0" width="130" height="130" filterUnits="userSpaceOnUse" color-interpolation-filters="sRGB">
<feFlood flood-opacity="0" result="BackgroundImageFix"/>
<feColorMatrix in="SourceAlpha" type="matrix" values="0 0 0 0 0 0 0 0 0 0 0 0 0 0 0 0 0 0 127 0" result="hardAlpha"/>
<feOffset dx="5" dy="4"/>
<feGaussianBlur stdDeviation="15.5"/>
<feComposite in2="hardAlpha" operator="out"/>
<feColorMatrix type="matrix" values="0 0 0 0 0 0 0 0 0 0 0 0 0 0 0 0 0 0 0.07 0"/>
<feBlend mode="normal" in2="BackgroundImageFix" result="effect1_dropShadow_2030_372"/>
<feBlend mode="normal" in="SourceGraphic" in2="effect1_dropShadow_2030_372" result="shape"/>
</filter>
<clipPath id="clip0_2030_372">
<rect width="28.4651" height="40.3256" fill="white" transform="translate(46 41)"/>
</clipPath>
</defs>
</svg>
